<?xml version="1.0" encoding="UTF-8" standalone="no"?>
<!-- Created with Inkscape (http://www.inkscape.org/) -->

<svg
   width="2216.9397"
   height="1355.5547"
   viewBox="0 0 2216.9397 1355.5547"
   version="1.1"
   id="svg1"
   inkscape:export-filename="kkkkk.png"
   inkscape:export-xdpi="96"
   inkscape:export-ydpi="96"
   xmlns:inkscape="http://www.inkscape.org/namespaces/inkscape"
   xmlns:sodipodi="http://sodipodi.sourceforge.net/DTD/sodipodi-0.dtd"
   xmlns="http://www.w3.org/2000/svg"
   xmlns:svg="http://www.w3.org/2000/svg">
  <sodipodi:namedview
     id="namedview1"
     pagecolor="#505050"
     bordercolor="#eeeeee"
     borderopacity="1"
     inkscape:showpageshadow="0"
     inkscape:pageopacity="0"
     inkscape:pagecheckerboard="0"
     inkscape:deskcolor="#505050"
     inkscape:document-units="px"
     inkscape:export-bgcolor="#00000000" />
  <defs
     id="defs1">
    <filter
       inkscape:collect="always"
       style="color-interpolation-filters:sRGB"
       id="filter52"
       x="-0.32695921"
       y="-0.91489057"
       width="1.6539184"
       height="2.8297811">
      <feGaussianBlur
         inkscape:collect="always"
         stdDeviation="182.60898"
         id="feGaussianBlur52" />
    </filter>
  </defs>
  <g
     inkscape:label="Camada 1"
     inkscape:groupmode="layer"
     id="layer1"
     transform="translate(121.33098,809.07892)">
    <g
       id="g11"
       transform="translate(138.5841,-734.04015)"
       style="fill:#000055"
       inkscape:export-filename="KKKK55LL.png"
       inkscape:export-xdpi="96"
       inkscape:export-ydpi="96">
      <g
         id="g52"
         transform="translate(9.0347945,-12.585225)"
         style="opacity:0.62259;fill:#800000;fill-opacity:1;filter:url(#filter52)">
        <path
           d="m 399.16735,996.09465 68.0554,-21.69337 -54.88348,-190.34774 102.00005,-208.0001 h -73.33336 l -94.66672,202.0001 h -1.33333 v -202.0001 h -73.33337 l -2.6319,479.03166 85.23897,-42.5943 -9.2737,-113.10387 22.66668,-42.66668 z"
           id="path47"
           style="font-size:666.667px;line-height:1.25;font-family:'Bebas Neue';-inkscape-font-specification:'Bebas Neue, Normal ';white-space:pre;fill:#800000;fill-opacity:1"
           transform="translate(-99.728943,-200.2454)"
           aria-label="K"
           sodipodi:nodetypes="cccccccccccccc" />
        <path
           d="M 535.35893,380.5197 H 428.02555 l -60.53174,393.63618 75.96974,-16.02495 1.93667,-52.89756 70.89123,-35.17799 8.62572,75.24669 78.88479,-5.13864 z m -58.00002,82.66671 h 1.33333 l 20.53171,124.75261 -42.39676,25.91411 z"
           id="path48"
           style="font-size:666.667px;line-height:1.25;font-family:'Bebas Neue';-inkscape-font-specification:'Bebas Neue, @wght=400';font-variation-settings:'wght' 400;white-space:pre;fill:#800000;fill-opacity:1"
           aria-label="A"
           sodipodi:nodetypes="cccccccccccccc" />
        <path
           d="m 744.64458,725.45567 84.09209,-3.57209 5.37624,-341.36388 h -65.33337 l -8.40081,167.0044 v 0 L 693.44617,380.5197 h -92.00004 l 2.35583,359.64373 68.35586,-7.64028 -4.71166,-221.13279 h 1.33333 z"
           id="path49"
           style="font-size:666.667px;line-height:1.25;font-family:'Bebas Neue';-inkscape-font-specification:'Bebas Neue, @wght=400';font-variation-settings:'wght' 400;white-space:pre;fill:#800000;fill-opacity:1;stroke-width:1.00853"
           aria-label="N"
           sodipodi:nodetypes="ccccccccccccc" />
        <path
           d="m 964.58989,562.62249 h 126.66671 v -66.6667 H 891.25652 l -1.99948,343.36335 200.00006,7.99792 -1.9995,-69.33024 -124.66719,-5.99843 v -72.68345 h 100.66669 v -66.6667 H 962.59041 Z"
           id="path50"
           style="font-size:666.667px;line-height:1.25;font-family:'Bebas Neue';-inkscape-font-specification:'Bebas Neue, Normal';white-space:pre;fill:#800000;fill-opacity:1"
           transform="translate(-40.702247,-117.43557)"
           aria-label="E"
           sodipodi:nodetypes="ccccccccccccc" />
        <path
           d="m 115.99419,1395.6935 c 0,-33.3334 14.66667,-46.0001 38.00002,-46.0001 23.33334,0 38.00001,12.6667 38.00001,46.0001 v 130.032 c 0,33.3333 -14.66667,46 -38.00001,46 -23.33335,0 -38.00002,-12.6667 -38.00002,-46 z m -73.333373,135.3627 c 0,74.6667 39.333353,117.3334 111.333393,117.3334 72.00003,0 111.33338,-42.6667 111.33338,-117.3334 v -130.6961 c 0,-74.6667 -39.33335,-117.3334 -111.33338,-117.3334 -72.00004,0 -111.333393,42.6667 -111.333393,117.3334 z"
           id="path51"
           style="font-size:666.667px;line-height:1.25;font-family:'Bebas Neue';-inkscape-font-specification:'Bebas Neue, @wght=400';font-variation-settings:'wght' 400;white-space:pre;fill:#800000;fill-opacity:1"
           transform="translate(1017.7339,-901.76422)"
           aria-label="O"
           sodipodi:nodetypes="ssssssssssssss" />
        <path
           d="m 1283.0615,451.26291 h 76.6667 l 3.3368,341.73551 74.1686,27.88266 -4.172,-369.61817 h 76.6667 v -66.6667 h -226.6668 z"
           id="path52"
           style="font-size:666.667px;line-height:1.25;font-family:'Bebas Neue';-inkscape-font-specification:'Bebas Neue, @wght=400';font-variation-settings:'wght' 400;white-space:pre;fill:#800000;fill-opacity:1"
           aria-label="T"
           sodipodi:nodetypes="ccccccccc" />
      </g>
      <g
         id="g16"
         style="fill:#800000">
        <path
           d="m 399.16735,996.09465 68.0554,-21.69337 -54.88348,-190.34774 102.00005,-208.0001 h -73.33336 l -94.66672,202.0001 h -1.33333 v -202.0001 h -73.33337 l -2.6319,479.03166 85.23897,-42.5943 -9.2737,-113.10387 22.66668,-42.66668 z"
           id="text2"
           style="font-size:666.667px;line-height:1.25;font-family:'Bebas Neue';-inkscape-font-specification:'Bebas Neue, Normal ';white-space:pre;fill:#800000"
           transform="translate(-99.728943,-200.2454)"
           aria-label="K"
           sodipodi:nodetypes="cccccccccccccc" />
        <path
           d="M 535.35893,380.5197 H 428.02555 l -60.53174,393.63618 75.96974,-16.02495 1.93667,-52.89756 70.89123,-35.17799 8.62572,75.24669 78.88479,-5.13864 z m -58.00002,82.66671 h 1.33333 l 20.53171,124.75261 -42.39676,25.91411 z"
           id="text4"
           style="font-size:666.667px;line-height:1.25;font-family:'Bebas Neue';-inkscape-font-specification:'Bebas Neue, @wght=400';font-variation-settings:'wght' 400;white-space:pre;fill:#800000"
           aria-label="A"
           sodipodi:nodetypes="cccccccccccccc" />
        <path
           d="m 744.64458,725.45567 84.09209,-3.57209 5.37624,-341.36388 h -65.33337 l -8.40081,167.0044 v 0 L 693.44617,380.5197 h -92.00004 l 2.35583,359.64373 68.35586,-7.64028 -4.71166,-221.13279 h 1.33333 z"
           id="text5"
           style="font-size:666.667px;line-height:1.25;font-family:'Bebas Neue';-inkscape-font-specification:'Bebas Neue, @wght=400';font-variation-settings:'wght' 400;white-space:pre;fill:#800000;stroke-width:1.00853"
           aria-label="N"
           sodipodi:nodetypes="ccccccccccccc" />
        <path
           d="m 964.58989,562.62249 h 126.66671 v -66.6667 H 891.25652 l -1.99948,343.36335 200.00006,7.99792 -1.9995,-69.33024 -124.66719,-5.99843 v -72.68345 h 100.66669 v -66.6667 H 962.59041 Z"
           id="text7"
           style="font-size:666.667px;line-height:1.25;font-family:'Bebas Neue';-inkscape-font-specification:'Bebas Neue, Normal';white-space:pre;fill:#800000"
           transform="translate(-40.702247,-117.43557)"
           aria-label="E"
           sodipodi:nodetypes="ccccccccccccc" />
        <path
           d="m 115.99419,1395.6935 c 0,-33.3334 14.66667,-46.0001 38.00002,-46.0001 23.33334,0 38.00001,12.6667 38.00001,46.0001 v 130.032 c 0,33.3333 -14.66667,46 -38.00001,46 -23.33335,0 -38.00002,-12.6667 -38.00002,-46 z m -73.333373,135.3627 c 0,74.6667 39.333353,117.3334 111.333393,117.3334 72.00003,0 111.33338,-42.6667 111.33338,-117.3334 v -130.6961 c 0,-74.6667 -39.33335,-117.3334 -111.33338,-117.3334 -72.00004,0 -111.333393,42.6667 -111.333393,117.3334 z"
           id="text10"
           style="font-size:666.667px;line-height:1.25;font-family:'Bebas Neue';-inkscape-font-specification:'Bebas Neue, @wght=400';font-variation-settings:'wght' 400;white-space:pre;fill:#800000"
           transform="translate(1017.7339,-901.76422)"
           aria-label="O"
           sodipodi:nodetypes="ssssssssssssss" />
        <path
           d="m 1283.0615,451.26291 h 76.6667 l 3.3368,341.73551 74.1686,27.88266 -4.172,-369.61817 h 76.6667 v -66.6667 h -226.6668 z"
           id="text11"
           style="font-size:666.667px;line-height:1.25;font-family:'Bebas Neue';-inkscape-font-specification:'Bebas Neue, @wght=400';font-variation-settings:'wght' 400;white-space:pre;fill:#800000"
           aria-label="T"
           sodipodi:nodetypes="ccccccccc" />
      </g>
      <g
         id="g22"
         transform="translate(9.0347945,-12.585225)">
        <path
           d="m 399.16735,996.09465 68.0554,-21.69337 -54.88348,-190.34774 102.00005,-208.0001 h -73.33336 l -94.66672,202.0001 h -1.33333 v -202.0001 h -73.33337 l -2.6319,479.03166 85.23897,-42.5943 -9.2737,-113.10387 22.66668,-42.66668 z"
           id="path17"
           style="font-size:666.667px;line-height:1.25;font-family:'Bebas Neue';-inkscape-font-specification:'Bebas Neue, Normal ';white-space:pre;fill:#000055"
           transform="translate(-99.728943,-200.2454)"
           aria-label="K"
           sodipodi:nodetypes="cccccccccccccc" />
        <path
           d="M 535.35893,380.5197 H 428.02555 l -60.53174,393.63618 75.96974,-16.02495 1.93667,-52.89756 70.89123,-35.17799 8.62572,75.24669 78.88479,-5.13864 z m -58.00002,82.66671 h 1.33333 l 20.53171,124.75261 -42.39676,25.91411 z"
           id="path18"
           style="font-size:666.667px;line-height:1.25;font-family:'Bebas Neue';-inkscape-font-specification:'Bebas Neue, @wght=400';font-variation-settings:'wght' 400;white-space:pre;fill:#000055"
           aria-label="A"
           sodipodi:nodetypes="cccccccccccccc" />
        <path
           d="m 744.64458,725.45567 84.09209,-3.57209 5.37624,-341.36388 h -65.33337 l -8.40081,167.0044 v 0 L 693.44617,380.5197 h -92.00004 l 2.35583,359.64373 68.35586,-7.64028 -4.71166,-221.13279 h 1.33333 z"
           id="path19"
           style="font-size:666.667px;line-height:1.25;font-family:'Bebas Neue';-inkscape-font-specification:'Bebas Neue, @wght=400';font-variation-settings:'wght' 400;white-space:pre;fill:#000055;stroke-width:1.00853"
           aria-label="N"
           sodipodi:nodetypes="ccccccccccccc" />
        <path
           d="m 964.58989,562.62249 h 126.66671 v -66.6667 H 891.25652 l -1.99948,343.36335 200.00006,7.99792 -1.9995,-69.33024 -124.66719,-5.99843 v -72.68345 h 100.66669 v -66.6667 H 962.59041 Z"
           id="path20"
           style="font-size:666.667px;line-height:1.25;font-family:'Bebas Neue';-inkscape-font-specification:'Bebas Neue, Normal';white-space:pre;fill:#000055"
           transform="translate(-40.702247,-117.43557)"
           aria-label="E"
           sodipodi:nodetypes="ccccccccccccc" />
        <path
           d="m 115.99419,1395.6935 c 0,-33.3334 14.66667,-46.0001 38.00002,-46.0001 23.33334,0 38.00001,12.6667 38.00001,46.0001 v 130.032 c 0,33.3333 -14.66667,46 -38.00001,46 -23.33335,0 -38.00002,-12.6667 -38.00002,-46 z m -73.333373,135.3627 c 0,74.6667 39.333353,117.3334 111.333393,117.3334 72.00003,0 111.33338,-42.6667 111.33338,-117.3334 v -130.6961 c 0,-74.6667 -39.33335,-117.3334 -111.33338,-117.3334 -72.00004,0 -111.333393,42.6667 -111.333393,117.3334 z"
           id="path21"
           style="font-size:666.667px;line-height:1.25;font-family:'Bebas Neue';-inkscape-font-specification:'Bebas Neue, @wght=400';font-variation-settings:'wght' 400;white-space:pre;fill:#000055"
           transform="translate(1017.7339,-901.76422)"
           aria-label="O"
           sodipodi:nodetypes="ssssssssssssss" />
        <path
           d="m 1283.0615,451.26291 h 76.6667 l 3.3368,341.73551 74.1686,27.88266 -4.172,-369.61817 h 76.6667 v -66.6667 h -226.6668 z"
           id="path22"
           style="font-size:666.667px;line-height:1.25;font-family:'Bebas Neue';-inkscape-font-specification:'Bebas Neue, @wght=400';font-variation-settings:'wght' 400;white-space:pre;fill:#000055"
           aria-label="T"
           sodipodi:nodetypes="ccccccccc" />
      </g>
    </g>
  </g>
</svg>
